# xmcd CD database file
#
# Track frame offsets:
#	187
#	8802
#	70260
#	140125
#	203767
#	280302
#
# Disc length: 3850 seconds
#
# Revision: 0
# Processed by: cddbd v1.5.1PL2 Copyright (c) Steve Scherf et al.
# Submitted via: CDex 1.51
#
DISCID=580f0806
DTITLE=レジェンド・オブ・クリスタニア - CDシネマ1_神の城壁
DYEAR=1993
DGENRE=Vocal
TTITLE0=はじまりの予感
TTITLE1=第一話
TTITLE2=第二話
TTITLE3=第三話
TTITLE4=第四話
TTITLE5=導かれて
EXTD=YEAR: 1993
EXTT0=
EXTT1=
EXTT2=
EXTT3=
EXTT4=
EXTT5=
PLAYORDER=
